# Made in Blockbench 5.1.3
mtllib horizontal_silo.mtl

o mesh
v 1.9999999999999998 0.8749999999999997 0.8749999999999987
v 1.9999999999999998 0.8749999999999997 0.8749999999999987
v 1.9999999999999998 0.8749999999999997 -5.124999999999998
v 1.9999999999999996 -4.440892098500626e-16 0.8749999999999987
v 1.1249999999999996 -2.220446049250313e-16 0.8749999999999987
v 1.1249999999999996 -2.220446049250313e-16 -5.124999999999998
v 1.9999999999999996 -4.440892098500626e-16 -5.124999999999998
v 1.9999999999999998 0.8749999999999997 -5.124999999999998
v 1.1213203435596428 3 0.8750000000000004
v 2 2.121320343559643 0.8749999999999996
v 2 2.121320343559643 -5.124999999999998
v 1.1213203435596428 3 -5.1249999999999964
v 1.1077914246311518 2.967338300438591 -5.1249999999999964
v 1.9673383004385914 2.107791424631152 -5.124999999999998
v 1.9673383004385914 2.1077914246311518 0.8749999999999996
v 1.1077914246311518 2.967338300438591 0.8750000000000004
v 2 0.8786796564403574 0.8749999999999982
v 2 0.8786796564403576 -5.125
v 1.967338300438591 0.8922085753688487 -5.125
v 1.967338300438591 0.8922085753688485 0.8749999999999982
v 1.1213203435596428 -2.220446049250313e-16 0.8749999999999969
v 1.1213203435596428 0 -5.125
v 1.1077914246311518 0.032661699561409074 -5.125
v 1.1077914246311518 0.03266169956140885 0.8749999999999969
v -0.1213203435596425 -2.220446049250313e-16 0.8749999999999969
v -0.1213203435596425 0 -5.125
v -0.10779142463115154 0.03266169956140885 -5.125
v -0.10779142463115154 0.03266169956140863 0.8749999999999969
v -0.9999999999999998 0.8786796564403563 0.8749999999999982
v -0.9999999999999998 0.8786796564403565 -5.125
v -0.9673383004385909 0.8922085753688476 -5.125
v -0.9673383004385909 0.8922085753688473 0.8749999999999982
v -0.9999999999999998 2.121320343559643 0.8749999999999996
v -0.9999999999999998 2.1213203435596433 -5.124999999999998
v -0.9673383004385909 2.107791424631152 -5.124999999999998
v -0.9673383004385909 2.107791424631152 0.8749999999999996
v -0.1213203435596436 3 0.8750000000000004
v -0.1213203435596436 3 -5.1249999999999964
v -0.10779142463115265 2.967338300438591 -5.1249999999999964
v -0.10779142463115265 2.967338300438591 0.8750000000000004
v -0.125 0 0.8749999999999987
v -0.125 0 0.8749999999999987
v -0.125 0 -5.124999999999998
v -1 -2.220446049250313e-16 0.8749999999999987
v -1.0000000000000002 0.875 0.8749999999999987
v -1.0000000000000002 0.875 -5.124999999999998
v -1 -2.220446049250313e-16 -5.124999999999998
v -0.125 0 -5.124999999999998
v 1.1249999999999998 3 0.8749999999999987
v 1.1249999999999998 3 0.8749999999999987
v 1.1249999999999998 3 -5.124999999999998
v 2 3 0.8749999999999987
v 2 2.125 0.8749999999999987
v 2 2.125 -5.124999999999998
v 2 3 -5.124999999999998
v 1.1249999999999998 3 -5.124999999999998
v -1.0000000000000002 2.1249999999999996 0.8749999999999987
v -1.0000000000000002 2.1249999999999996 0.8749999999999987
v -1.0000000000000002 2.1249999999999996 -5.124999999999998
v -1.0000000000000007 2.9999999999999996 0.8749999999999987
v -0.12500000000000033 3 0.8749999999999987
v -0.12500000000000033 3 -5.124999999999998
v -1.0000000000000007 2.9999999999999996 -5.124999999999998
v -1.0000000000000002 2.1249999999999996 -5.124999999999998
v 2 0 0.875
v 2 3 0.875
v 2 3 1
v 2 0 1
v -1 -2.220446049250313e-16 1
v -1.0000000000000002 3 1
v -1.0000000000000002 3 0.875
v -1 -2.220446049250313e-16 0.875
vt 0 0.8125
vt 0 0.8125
vt 0 1
vt 0.60546875 0.556640625
vt 0.60546875 0.583984375
vt 0.41796875 0.583984375
vt 0.41796875 0.556640625
vt 0.189453125 0.740234375
vt 0.189453125 0.701171875
vt 0.376953125 0.701171875
vt 0.376953125 0.740234375
vt 0.06640625 0.390625
vt 0.06640625 0.578125
vt 0.0390625 0.578125
vt 0.0390625 0.390625
vt 0.02734375 1
vt 0 1
vt 0.02734375 1
vt 0.02734375 1
vt 0.02734375 1
vt 0 1
vt 0 0.8125
vt 0 1
vt 0 1
vt 0.03125 0.99609375
vt 0.00390625 0.96875
vt 0.03125 0.96875
vt 0.03125 0.939453125
vt 0.00390625 0.966796875
vt 0.00390625 0.939453125
vt 0 0.751953125
vt 0 0.712890625
vt 0.1875 0.712890625
vt 0.1875 0.751953125
vt 0.37890625 0.623046875
vt 0.37890625 0.5859375
vt 0.56640625 0.5859375
vt 0.56640625 0.623046875
vt 0.092729296875 0.9341314453125
vt 0.0658685546875 0.907270703125
vt 0.0662912109375 0.90625
vt 0.09375 0.9337087890625
vt 0.068359375 0.8633962890625
vt 0.0958181640625 0.8359375
vt 0.0962408203125 0.836958203125
vt 0.069380078125 0.8638189453125
vt 0.24609375 0.78125
vt 0.24609375 0.7421875
vt 0.43359375 0.7421875
vt 0.43359375 0.78125
vt 0.037109375 0.62890625
vt 0 0.62890625
vt 0 0.44140625
vt 0.037109375 0.44140625
vt 0.0658685546875 0.907270703125
vt 0.0278814453125 0.907270703125
vt 0.0274587890625 0.90625
vt 0.0662912109375 0.90625
vt 0.0958181640625 0.8359375
vt 0.1346505859375 0.8359375
vt 0.1342279296875 0.836958203125
vt 0.0962408203125 0.836958203125
vt 0.1875 0.630859375
vt 0.1875 0.669921875
vt 0 0.669921875
vt 0 0.630859375
vt 0.2265625 0.580078125
vt 0.2265625 0.6171875
vt 0.0390625 0.6171875
vt 0.0390625 0.580078125
vt 0.0278814453125 0.907270703125
vt 0.0010207031250000012 0.9341314453125
vt 0 0.9337087890625
vt 0.0274587890625 0.90625
vt 0.1346505859375 0.8359375
vt 0.162109375 0.8633962890625
vt 0.161088671875 0.8638189453125
vt 0.1342279296875 0.836958203125
vt 0.43359375 0.82421875
vt 0.43359375 0.86328125
vt 0.24609375 0.86328125
vt 0.24609375 0.82421875
vt 0.56640625 0.6640625
vt 0.56640625 0.701171875
vt 0.37890625 0.701171875
vt 0.37890625 0.6640625
vt 0.0010207031250000012 0.9341314453125
vt 0.0010207031250000012 0.9721185546875
vt 0 0.9725412109375
vt 0 0.9337087890625
vt 0.162109375 0.8633962890625
vt 0.162109375 0.9022287109375
vt 0.161088671875 0.9018060546875
vt 0.161088671875 0.8638189453125
vt 0.4453125 0.9609375
vt 0.4453125 1
vt 0.2578125 1
vt 0.2578125 0.9609375
vt 0.56640625 0.625
vt 0.56640625 0.662109375
vt 0.37890625 0.662109375
vt 0.37890625 0.625
vt 0.0010207031250000012 0.9721185546875
vt 0.0278814453125 0.998979296875
vt 0.0274587890625 1
vt 0 0.9725412109375
vt 0.162109375 0.9022287109375
vt 0.1346505859375 0.9296875
vt 0.1342279296875 0.928666796875
vt 0.161088671875 0.9018060546875
vt 0.43359375 0.783203125
vt 0.43359375 0.822265625
vt 0.24609375 0.822265625
vt 0.24609375 0.783203125
vt 0.56640625 0.703125
vt 0.56640625 0.740234375
vt 0.37890625 0.740234375
vt 0.37890625 0.703125
vt 0.0278814453125 0.998979296875
vt 0.0658685546875 0.998979296875
vt 0.0662912109375 1
vt 0.0274587890625 1
vt 0.1346505859375 0.9296875
vt 0.0958181640625 0.9296875
vt 0.0962408203125 0.928666796875
vt 0.1342279296875 0.928666796875
vt 0.189453125 0.658203125
vt 0.189453125 0.619140625
vt 0.376953125 0.619140625
vt 0.376953125 0.658203125
vt 0.228515625 0.583984375
vt 0.228515625 0.546875
vt 0.416015625 0.546875
vt 0.416015625 0.583984375
vt 0.0658685546875 0.998979296875
vt 0.092729296875 0.9721185546875
vt 0.09375 0.9725412109375
vt 0.0662912109375 1
vt 0.0958181640625 0.9296875
vt 0.068359375 0.9022287109375
vt 0.069380078125 0.9018060546875
vt 0.0962408203125 0.928666796875
vt 0.1640625 0.904296875
vt 0.1640625 0.865234375
vt 0.3515625 0.865234375
vt 0.3515625 0.904296875
vt 0.353515625 0.91796875
vt 0.353515625 0.880859375
vt 0.541015625 0.880859375
vt 0.541015625 0.91796875
vt 0.092729296875 0.9721185546875
vt 0.092729296875 0.9341314453125
vt 0.09375 0.9337087890625
vt 0.09375 0.9725412109375
vt 0.068359375 0.9022287109375
vt 0.068359375 0.8633962890625
vt 0.069380078125 0.8638189453125
vt 0.069380078125 0.9018060546875
vt 0 0.8125
vt 0 0.8125
vt 0 1
vt 0.623046875 0.79296875
vt 0.623046875 0.8203125
vt 0.435546875 0.8203125
vt 0.435546875 0.79296875
vt 0 0.7109375
vt 0 0.671875
vt 0.1875 0.671875
vt 0.1875 0.7109375
vt 0.435546875 0.8515625
vt 0.623046875 0.8515625
vt 0.623046875 0.87890625
vt 0.435546875 0.87890625
vt 0 1
vt 0.02734375 1
vt 0 1
vt 0 1
vt 0 1
vt 0.02734375 1
vt 0 0.8125
vt 0 1
vt 0 1
vt 0.033203125 0.99609375
vt 0.060546875 0.96875
vt 0.060546875 0.99609375
vt 0.033203125 0.939453125
vt 0.060546875 0.966796875
vt 0.033203125 0.966796875
vt 0 0.8125
vt 0 0.8125
vt 0 1
vt 0.435546875 0.791015625
vt 0.435546875 0.763671875
vt 0.623046875 0.763671875
vt 0.623046875 0.791015625
vt 0.4453125 0.919921875
vt 0.4453125 0.958984375
vt 0.2578125 0.958984375
vt 0.2578125 0.919921875
vt 0.623046875 0.849609375
vt 0.435546875 0.849609375
vt 0.435546875 0.822265625
vt 0.623046875 0.822265625
vt 0.02734375 1
vt 0 1
vt 0.02734375 1
vt 0.02734375 1
vt 0.02734375 1
vt 0 1
vt 0 0.8125
vt 0 1
vt 0 1
vt 0.076171875 0.921875
vt 0.048828125 0.94921875
vt 0.048828125 0.921875
vt 0.080078125 0.978515625
vt 0.052734375 0.951171875
vt 0.080078125 0.951171875
vt 0 0.8125
vt 0 0.8125
vt 0 1
vt 0.447265625 1
vt 0.447265625 0.97265625
vt 0.634765625 0.97265625
vt 0.634765625 1
vt 0.376953125 0.66015625
vt 0.376953125 0.69921875
vt 0.189453125 0.69921875
vt 0.189453125 0.66015625
vt 0.41796875 0.52734375
vt 0.60546875 0.52734375
vt 0.60546875 0.5546875
vt 0.41796875 0.5546875
vt 0 1
vt 0.02734375 1
vt 0 1
vt 0 1
vt 0 1
vt 0.02734375 1
vt 0 0.8125
vt 0 1
vt 0 1
vt 0.0859375 0.88671875
vt 0.11328125 0.9140625
vt 0.0859375 0.9140625
vt 0.00390625 0.9375
vt 0.03125 0.91015625
vt 0.03125 0.9375
vt 0.015625 0.8203125
vt 0.015625 0.9140625
vt 0.01171875 0.9140625
vt 0.01171875 0.8203125
vt 0.021484375 0.814453125
vt 0.021484375 0.908203125
vt 0.017578125 0.908203125
vt 0.017578125 0.814453125
vt 0 0.83203125
vt 0.00390625 0.83203125
vt 0.00390625 0.92578125
vt 0 0.92578125
vt 0.005859375 0.826171875
vt 0.009765625 0.826171875
vt 0.009765625 0.919921875
vt 0.005859375 0.919921875
vt 0.150390625 0.75390625
vt 0.244140625 0.75390625
vt 0.244140625 0.84765625
vt 0.150390625 0.84765625
vt 0.255859375 1
vt 0.162109375 1
vt 0.162109375 0.90625
vt 0.255859375 0.90625
vn 0 0 0
vn -2.537652627714644e-16 -1 0
vn -0.7071067811865475 0.7071067811865477 0
vn 1 -2.5376526277146434e-16 0
vn 0 0 0
vn 0 0 0
vn 0 0 0
vn 0 0 -1
vn 0 0 1
vn 0.7071067811865476 0.7071067811865476 0
vn -0.7071067811865474 -0.7071067811865478 -6.088837824033218e-17
vn 3.0264950469658486e-16 -7.30660538883982e-16 1
vn -5.921189464667453e-16 1.429501591098107e-15 -1
vn 1 0 0
vn -1 3.653302694419928e-16 1.3519935890900426e-32
vn -4.539742570448782e-16 -1.0959908083259781e-15 1
vn 5.921189464667525e-16 1.4295015910980967e-15 -1
vn 0.7071067811865477 -0.7071067811865474 -1.4890641573938516e-17
vn -0.7071067811865477 0.7071067811865474 3.044418912016609e-17
vn -1.0959908083259813e-15 -4.539742570448784e-16 1
vn 0 0 -1
vn 0 -1 -3.700743415417191e-17
vn -1.826651347209964e-16 1 3.700743415417191e-17
vn 0 0 1
vn 0 0 -1
vn -0.7071067811865472 -0.7071067811865478 -2.978128314787705e-17
vn 0.7071067811865474 0.7071067811865478 3.0444189120166095e-17
vn 4.539742570448698e-16 -1.0959908083259744e-15 1
vn 0 0 -1
vn -1 0 0
vn 1 0 0
vn -4.53974257044861e-16 -1.0959908083259771e-15 1
vn 5.921189464667557e-16 1.429501591098095e-15 -1
vn -0.7071067811865479 0.7071067811865472 0
vn 0.7071067811865478 -0.7071067811865472 0
vn -7.30660538883985e-16 -3.0264950469658155e-16 1
vn 1.4295015910980971e-15 5.921189464667518e-16 -1
vn 0 1 0
vn 0 -1 0
vn 0 0 1
vn 0 0 -1
vn 0 0 0
vn -1 -2.537652627714643e-16 0
vn 0.7071067811865475 0.7071067811865477 0
vn 2.537652627714644e-16 -1 0
vn 0 0 0
vn 0 0 0
vn 0 0 0
vn 0 0 -1
vn 0 0 1
vn 0 0 0
vn 1 0 0
vn -0.7071067811865475 -0.7071067811865477 0
vn 0 1 0
vn 0 0 0
vn 0 0 0
vn 0 0 0
vn 0 0 -1
vn 0 0 1
vn 0 0 0
vn -5.075305255429285e-16 1 0
vn 0.7071067811865477 -0.7071067811865474 0
vn -1 -5.075305255429288e-16 0
vn 0 0 0
vn 0 0 0
vn 0 0 0
vn 0 0 -1
vn 0 0 1
vn 1 0 0
vn -1 -7.401486830834377e-17 0
vn 0 1 0
vn 7.401486830834377e-17 -1 0
vn 0 0 1
vn 0 0 -1
usemtl m_2be7c0db-fe4f-5871-867c-6f78a2c6b8a8
f 1/1/1 2/2/1 3/3/1
f 4/4/2 5/5/2 6/6/2 7/7/2
f 5/8/3 1/9/3 3/10/3 6/11/3
f 8/12/4 2/13/4 4/14/4 7/15/4
f 1/16/5 5/17/5 2/18/5
f 3/19/6 8/20/6 6/21/6
f 2/22/7 3/23/7 8/24/7
f 5/25/8 2/26/8 4/27/8
f 8/28/9 6/29/9 7/30/9
f 9/31/10 10/32/10 11/33/10 12/34/10
f 13/35/11 14/36/11 15/37/11 16/38/11
f 16/39/12 15/40/12 10/41/12 9/42/12
f 12/43/13 11/44/13 14/45/13 13/46/13
f 10/47/14 17/48/14 18/49/14 11/50/14
f 14/51/15 19/52/15 20/53/15 15/54/15
f 15/55/16 20/56/16 17/57/16 10/58/16
f 11/59/17 18/60/17 19/61/17 14/62/17
f 17/63/18 21/64/18 22/65/18 18/66/18
f 19/67/19 23/68/19 24/69/19 20/70/19
f 20/71/20 24/72/20 21/73/20 17/74/20
f 18/75/21 22/76/21 23/77/21 19/78/21
f 21/79/22 25/80/22 26/81/22 22/82/22
f 23/83/23 27/84/23 28/85/23 24/86/23
f 24/87/24 28/88/24 25/89/24 21/90/24
f 22/91/25 26/92/25 27/93/25 23/94/25
f 25/95/26 29/96/26 30/97/26 26/98/26
f 27/99/27 31/100/27 32/101/27 28/102/27
f 28/103/28 32/104/28 29/105/28 25/106/28
f 26/107/29 30/108/29 31/109/29 27/110/29
f 29/111/30 33/112/30 34/113/30 30/114/30
f 31/115/31 35/116/31 36/117/31 32/118/31
f 32/119/32 36/120/32 33/121/32 29/122/32
f 30/123/33 34/124/33 35/125/33 31/126/33
f 33/127/34 37/128/34 38/129/34 34/130/34
f 35/131/35 39/132/35 40/133/35 36/134/35
f 36/135/36 40/136/36 37/137/36 33/138/36
f 34/139/37 38/140/37 39/141/37 35/142/37
f 37/143/38 9/144/38 12/145/38 38/146/38
f 39/147/39 13/148/39 16/149/39 40/150/39
f 40/151/40 16/152/40 9/153/40 37/154/40
f 38/155/41 12/156/41 13/157/41 39/158/41
f 41/159/42 42/160/42 43/161/42
f 44/162/43 45/163/43 46/164/43 47/165/43
f 45/166/44 41/167/44 43/168/44 46/169/44
f 48/170/45 42/171/45 44/172/45 47/173/45
f 41/174/46 45/175/46 42/176/46
f 43/177/47 48/178/47 46/179/47
f 42/180/48 43/181/48 48/182/48
f 45/183/49 42/184/49 44/185/49
f 48/186/50 46/187/50 47/188/50
f 49/189/51 50/190/51 51/191/51
f 52/192/52 53/193/52 54/194/52 55/195/52
f 53/196/53 49/197/53 51/198/53 54/199/53
f 56/200/54 50/201/54 52/202/54 55/203/54
f 49/204/55 53/205/55 50/206/55
f 51/207/56 56/208/56 54/209/56
f 50/210/57 51/211/57 56/212/57
f 53/213/58 50/214/58 52/215/58
f 56/216/59 54/217/59 55/218/59
f 57/219/60 58/220/60 59/221/60
f 60/222/61 61/223/61 62/224/61 63/225/61
f 61/226/62 57/227/62 59/228/62 62/229/62
f 64/230/63 58/231/63 60/232/63 63/233/63
f 57/234/64 61/235/64 58/236/64
f 59/237/65 64/238/65 62/239/65
f 58/240/66 59/241/66 64/242/66
f 61/243/67 58/244/67 60/245/67
f 64/246/68 62/247/68 63/248/68
f 65/249/69 66/250/69 67/251/69 68/252/69
f 69/253/70 70/254/70 71/255/70 72/256/70
f 67/257/71 66/258/71 71/259/71 70/260/71
f 65/261/72 68/262/72 69/263/72 72/264/72
f 68/265/73 67/266/73 70/267/73 69/268/73
f 72/269/74 71/270/74 66/271/74 65/272/74